<svg width="18" height="18" viewBox="0 0 18 18" fill="none" xmlns="http://www.w3.org/2000/svg">
<path d="M7.5 5.25H10.5M7.5 13.5V16.5L9 15.75L10.5 16.5V13.5M7.5 14.25H6C5.60218 14.25 5.22064 14.092 4.93934 13.8107C4.65804 13.5294 4.5 13.1478 4.5 12.75V3.75C4.5 3.35218 4.65804 2.97064 4.93934 2.68934C5.22064 2.40804 5.60218 2.25 6 2.25H12C12.3978 2.25 12.7794 2.40804 13.0607 2.68934C13.342 2.97064 13.5 3.35218 13.5 3.75V12.75C13.5 13.1478 13.342 13.5294 13.0607 13.8107C12.7794 14.092 12.3978 14.25 12 14.25H10.5M6.75 11.25C6.75 11.8467 6.98705 12.419 7.40901 12.841C7.83097 13.2629 8.40326 13.5 9 13.5C9.59674 13.5 10.169 13.2629 10.591 12.841C11.0129 12.419 11.25 11.8467 11.25 11.25C11.25 10.6533 11.0129 10.081 10.591 9.65901C10.169 9.23705 9.59674 9 9 9C8.40326 9 7.83097 9.23705 7.40901 9.65901C6.98705 10.081 6.75 10.6533 6.75 11.25Z" stroke="#41474A" stroke-width="1.5" stroke-linecap="round" stroke-linejoin="round"/>
</svg>
