<svg width="20" height="21" viewBox="0 0 20 21" fill="none" xmlns="http://www.w3.org/2000/svg">
<path d="M8.585 8.9122C8.20999 9.28735 7.99936 9.79611 7.99945 10.3266C7.99954 10.857 8.21035 11.3657 8.5855 11.7407C8.96065 12.1157 9.46941 12.3263 9.99986 12.3263C10.5303 12.3262 11.039 12.1153 11.414 11.7402M14.681 14.9982C13.2782 15.8758 11.6547 16.3361 10 16.3252C6.4 16.3252 3.4 14.3252 1 10.3252C2.272 8.2052 3.712 6.6472 5.32 5.6512M8.18 4.50519C8.77904 4.38393 9.38881 4.32362 10 4.32519C13.6 4.32519 16.6 6.3252 19 10.3252C18.334 11.4352 17.621 12.3922 16.862 13.1952M1 1.3252L19 19.3252" stroke="#888888" stroke-width="1.5" stroke-linecap="round" stroke-linejoin="round"/>
</svg>
