<svg width="14" height="14" viewBox="0 0 14 14" fill="none" xmlns="http://www.w3.org/2000/svg">
<path d="M13.6666 6.99992C13.6666 3.31802 10.6818 0.333252 6.99992 0.333252C3.31802 0.333252 0.333252 3.31802 0.333252 6.99992C0.333252 10.3274 2.77116 13.0855 5.95825 13.5856V8.927H4.26554V6.99992H5.95825V5.53117C5.95825 3.86033 6.95354 2.93742 8.47635 2.93742C9.20574 2.93742 9.96867 3.06763 9.96867 3.06763V4.70825H9.12802C8.29985 4.70825 8.04158 5.22214 8.04158 5.74936V6.99992H9.89054L9.59497 8.927H8.04158V13.5856C11.2287 13.0855 13.6666 10.3274 13.6666 6.99992Z" fill="#1877F2"/>
<path d="M9.59505 8.92708L9.89062 7H8.04167V5.74944C8.04167 5.22223 8.29993 4.70833 9.1281 4.70833H9.96875V3.06771C9.96875 3.06771 9.20582 2.9375 8.47643 2.9375C6.95362 2.9375 5.95833 3.86042 5.95833 5.53125V7H4.26562V8.92708H5.95833V13.5857C6.29775 13.6389 6.64562 13.6667 7 13.6667C7.35437 13.6667 7.70225 13.6389 8.04167 13.5857V8.92708H9.59505Z" fill="white"/>
</svg>
