<svg width="21" height="21" viewBox="0 0 21 21" fill="none" xmlns="http://www.w3.org/2000/svg">
<path d="M21 11.1804C21 10.3602 20.9319 9.7616 20.7845 9.14087H11.1985V12.8431H16.8252C16.7118 13.7631 16.0992 15.1487 14.7379 16.0797L14.7188 16.2037L17.7497 18.4979L17.9597 18.5184C19.8882 16.7781 21 14.2176 21 11.1804Z" fill="#4285F4"/>
<path d="M11.1984 20.9349C13.955 20.9349 16.2693 20.0481 17.9596 18.5185L14.7378 16.0798C13.8757 16.6673 12.7185 17.0774 11.1984 17.0774C8.49846 17.0774 6.20692 15.3372 5.39005 12.9319L5.27031 12.9418L2.11873 15.325L2.07751 15.437C3.75646 18.6958 7.20515 20.9349 11.1984 20.9349Z" fill="#34A853"/>
<path d="M5.39009 12.9319C5.17455 12.3112 5.04981 11.6461 5.04981 10.9589C5.04981 10.2716 5.17455 9.60652 5.37875 8.9858L5.37304 8.8536L2.18196 6.43213L2.07756 6.48065C1.38558 7.83299 0.988525 9.3516 0.988525 10.9589C0.988525 12.5661 1.38558 14.0847 2.07756 15.437L5.39009 12.9319Z" fill="#FBBC05"/>
<path d="M11.1984 4.84007C13.1156 4.84007 14.4088 5.64924 15.1462 6.32544L18.0277 3.57645C16.258 1.9692 13.955 0.982666 11.1984 0.982666C7.20515 0.982666 3.75646 3.22173 2.07751 6.48056L5.37871 8.98571C6.20692 6.58036 8.49846 4.84007 11.1984 4.84007Z" fill="#EB4335"/>
</svg>
