<svg width="16" height="16" viewBox="0 0 16 16" fill="none" xmlns="http://www.w3.org/2000/svg">
<path d="M13.6791 1.33325H2.31742C1.77492 1.33325 1.33325 1.76368 1.33325 2.2937V13.7041C1.33325 14.2353 1.77492 14.6666 2.31742 14.6666H13.6799C14.2237 14.6666 14.6666 14.2353 14.6666 13.7041V2.2937C14.6666 1.76368 14.2237 1.33325 13.6791 1.33325Z" fill="#0177B5"/>
<path d="M3.48765 6.43471H5.42471V12.6662H3.48765V6.43471ZM4.45475 3.33325C5.07274 3.33325 5.57503 3.83642 5.57503 4.45549C5.57503 5.07456 5.07274 5.57895 4.45516 5.57895C4.15788 5.5783 3.87295 5.45974 3.66271 5.24921C3.45246 5.03867 3.33401 4.75329 3.33325 4.45549C3.33325 4.30801 3.36227 4.16198 3.41864 4.02574C3.47502 3.88951 3.55765 3.76574 3.66181 3.66151C3.76596 3.55729 3.8896 3.47465 4.02566 3.41833C4.16172 3.362 4.30753 3.33309 4.45475 3.33325ZM6.6342 6.43471H8.48856V7.28638H8.51423C8.7725 6.79668 9.40312 6.28004 10.3474 6.28004C12.3052 6.28004 12.6666 7.57082 12.6666 9.24846V12.6666H10.7344V9.63532C10.7344 8.91301 10.7214 7.98257 9.72983 7.98257C8.72362 7.98257 8.56882 8.77018 8.56882 9.58227V12.665H6.63705V6.43348L6.6342 6.43471Z" fill="white"/>
</svg>
