<svg width="193" height="198" viewBox="0 0 193 198" fill="none" xmlns="http://www.w3.org/2000/svg">
<path d="M134.156 162.753C134.034 162.732 133.921 162.676 133.829 162.593C133.738 162.509 133.673 162.401 133.641 162.281L116.324 105.808C116.233 105.462 118.684 105.109 119.036 105.017C119.119 104.995 119.204 104.99 119.288 105.001C119.373 105.012 119.454 105.04 119.527 105.083C119.601 105.125 119.665 105.182 119.717 105.25C119.769 105.317 119.806 105.395 119.828 105.477L134.889 161.95C134.917 162.055 134.918 162.166 134.892 162.272C134.866 162.379 134.814 162.476 134.74 162.557C134.666 162.637 134.573 162.698 134.47 162.732C134.367 162.767 134.256 162.775 134.149 162.755L134.156 162.753Z" fill="#331832"/>
<path d="M73.2632 169.861C73.1448 169.825 73.0394 169.755 72.9594 169.661C72.8794 169.566 72.8282 169.45 72.8119 169.327L62.9474 111.085C62.9006 110.73 65.3766 110.697 65.7317 110.651C65.8159 110.639 65.9015 110.645 65.9835 110.667C66.0655 110.689 66.1424 110.727 66.2097 110.779C66.2771 110.831 66.3336 110.896 66.3759 110.969C66.4183 111.043 66.4458 111.125 66.4567 111.209L74.1016 169.159C74.116 169.267 74.1031 169.377 74.064 169.478C74.025 169.579 73.9612 169.669 73.8784 169.739C73.7956 169.809 73.6966 169.858 73.5903 169.879C73.4841 169.901 73.3741 169.896 73.2706 169.864L73.2632 169.861Z" fill="#331832"/>
<path d="M37.3121 158.167C37.4768 158.12 37.6254 158.028 37.7419 157.902C37.8584 157.777 37.9383 157.621 37.973 157.453L54.3283 81.1083C54.4096 80.6439 50.8905 80.7007 50.3825 80.6537C50.1449 80.6279 49.9061 80.6908 49.7119 80.8303C49.5176 80.9697 49.3815 81.1761 49.3295 81.4098L36.1506 157.26C36.1335 157.372 36.1402 157.487 36.1702 157.596C36.2002 157.705 36.2529 157.807 36.3249 157.894C36.3968 157.982 36.4863 158.053 36.5876 158.104C36.6889 158.154 36.7996 158.182 36.9126 158.187C37.0458 158.207 37.1816 158.2 37.3121 158.167Z" fill="#331832"/>
<path d="M41.1272 29.6806L108.161 25.9424C109.118 25.8888 110.067 26.1509 110.861 26.6886C111.656 27.2262 112.253 28.0099 112.56 28.9196L138.746 106.305C138.932 106.854 139.007 107.435 138.968 108.014C138.929 108.593 138.776 109.158 138.518 109.678C138.259 110.197 137.901 110.66 137.463 111.04C137.025 111.42 136.516 111.709 135.966 111.891L59.8548 137.062C59.2561 137.261 58.6217 137.327 57.995 137.258C57.3683 137.188 56.7639 136.984 56.223 136.659C55.6821 136.334 55.2174 135.897 54.8607 135.376C54.5039 134.855 54.2635 134.263 54.1557 133.641L37.0458 34.8122C36.9413 34.2015 36.9668 33.5756 37.1207 32.9755C37.2745 32.3754 37.5533 31.8147 37.9387 31.3301C38.3241 30.8455 38.8074 30.4481 39.3569 30.1638C39.9064 29.8795 40.5097 29.7148 41.1272 29.6806Z" fill="#0070B8"/>
<path d="M45.6698 31.8425L107.061 28.3835C107.942 28.3376 108.813 28.5831 109.541 29.0822C110.269 29.5814 110.812 30.3065 111.088 31.1458L135.071 102.917C135.42 103.943 135.348 105.066 134.871 106.039C134.393 107.012 133.55 107.756 132.526 108.106L62.8216 131.442C62.2704 131.623 61.6866 131.683 61.1102 131.616C60.5338 131.55 59.9786 131.36 59.4828 131.058C58.9869 130.756 58.5622 130.351 58.2377 129.869C57.9133 129.387 57.6968 128.84 57.6033 128.267L41.9238 36.611C41.8236 36.0468 41.8437 35.4678 41.9826 34.9119C42.1216 34.356 42.3763 33.8359 42.73 33.3856C43.0837 32.9353 43.5285 32.565 44.0352 32.2991C44.5418 32.0331 45.0989 31.8775 45.6698 31.8425Z" fill="#B8D5DC"/>
<path d="M88.2867 54.6421C89.431 57.4439 89.6036 60.0382 89.0266 62.2618C88.5903 63.9107 87.7415 65.421 86.5605 66.6498L86.341 66.8746C84.1585 69.0538 80.9303 70.4818 77.1449 70.8895C75.9721 71.0148 74.7912 71.047 73.6134 70.9859C65.6824 70.5881 57.5048 66.1458 54.4221 58.573C51.7316 51.9664 52.6465 45.2535 57.9265 41.6932C59.6059 40.5591 61.7243 39.7438 64.3112 39.3534C70.4296 38.4269 77.7984 41.5202 83.0265 46.7927C85.2777 49.0375 87.0652 51.7048 88.2867 54.6421Z" fill="#DAEBE8"/>
<path d="M70.7427 55.1214L73.6009 70.9957C65.6699 70.5979 57.4923 66.1556 54.4097 58.5829C51.7192 51.9762 52.6341 45.2633 57.914 41.703L70.7427 55.1214Z" fill="#366F90"/>
<path d="M86.5603 66.6597C84.3778 68.9648 81.0609 70.4769 77.1447 70.8994C75.9719 71.0247 74.7911 71.0569 73.6132 70.9958L70.7427 55.1215L86.5603 66.6597Z" fill="#EF8062"/>
<path d="M89.0265 62.2618C88.5903 63.9107 87.7415 65.421 86.5604 66.6498L86.3409 66.8746L70.7551 55.1116L89.0265 62.2618Z" fill="#ACC9C5"/>
<path d="M88.2867 54.6422C89.431 57.444 89.6036 60.0382 89.0265 62.2619L70.7527 55.1092L83.0216 46.7903C85.2748 49.0353 87.064 51.7035 88.2867 54.6422Z" fill="#ACC9C5"/>
<path d="M75.8156 44.8582L66.4444 45.8712C66.3063 45.8696 66.1703 45.8373 66.0462 45.7767C65.9221 45.716 65.813 45.6284 65.7268 45.5204C65.5048 45.1176 65.8575 44.957 66.0646 44.9348L75.5246 44.1244C75.6348 44.1191 75.744 44.1474 75.8378 44.2057C75.9316 44.2639 76.0056 44.3493 76.0499 44.4505C76.0722 44.492 76.0835 44.5385 76.0828 44.5856C76.0821 44.6327 76.0695 44.6789 76.046 44.7197C76.0225 44.7605 75.9891 44.7947 75.9488 44.8189C75.9084 44.8432 75.8626 44.8567 75.8156 44.8582Z" fill="#ACC9C5"/>
<path d="M74.0844 46.852L67.0067 47.6155C66.8996 47.6122 66.7947 47.585 66.6995 47.5358C66.6044 47.4867 66.5214 47.4168 66.4567 47.3313C66.2816 47.0077 66.5455 46.8817 66.7033 46.8644L73.855 46.264C73.9408 46.2625 74.025 46.2869 74.0967 46.334C74.1684 46.3812 74.2243 46.4489 74.257 46.5284C74.275 46.5602 74.2846 46.5961 74.285 46.6327C74.2854 46.6693 74.2766 46.7054 74.2594 46.7377C74.2422 46.77 74.2171 46.7974 74.1865 46.8173C74.1559 46.8373 74.1208 46.8493 74.0844 46.852Z" fill="#ACC9C5"/>
<path d="M106.901 39.8402C107.342 40.8291 107.447 41.9359 107.199 42.9904C107.019 43.6709 106.668 44.2942 106.181 44.8014L106.089 44.8953C105.187 45.7946 103.855 46.3777 102.292 46.5531C101.807 46.6049 101.319 46.6181 100.832 46.5926C97.5566 46.4296 94.1731 44.5938 92.9056 41.4659C91.7958 38.7481 92.1657 35.9637 94.3532 34.4936C95.1492 33.979 96.0499 33.649 96.9894 33.5275C99.5172 33.1446 102.56 34.4219 104.718 36.6011C105.651 37.5264 106.393 38.6272 106.901 39.8402Z" fill="#DAEBE8"/>
<path d="M99.6528 40.0378L100.834 46.595C97.5591 46.432 94.1756 44.5962 92.908 41.4683C91.7983 38.7505 92.1682 35.966 94.3556 34.496L99.6528 40.0378Z" fill="#EF8062"/>
<path d="M106.181 44.8038C105.278 45.7551 103.909 46.3801 102.292 46.5556C101.807 46.6073 101.319 46.6205 100.832 46.5951L99.6504 40.0378L106.181 44.8038Z" fill="#EF8062"/>
<path d="M107.199 42.9903C107.019 43.6718 106.669 44.2959 106.181 44.8038L106.089 44.8977L99.6528 40.0403L107.199 42.9903Z" fill="#ACC9C5"/>
<path d="M106.901 39.8402C107.342 40.8291 107.447 41.9359 107.199 42.9903L99.6528 40.0255L104.721 36.5887C105.654 37.5179 106.395 38.623 106.901 39.8402Z" fill="#ACC9C5"/>
<path d="M101.747 35.798L97.8723 36.2156C97.8155 36.2151 97.7595 36.2019 97.7083 36.1772C97.6571 36.1524 97.6121 36.1166 97.5764 36.0723C97.4852 35.9067 97.6307 35.84 97.7145 35.8252L101.621 35.4916C101.666 35.4892 101.711 35.5007 101.75 35.5245C101.789 35.5484 101.819 35.5834 101.838 35.6251C101.848 35.6419 101.854 35.6611 101.855 35.6809C101.855 35.7006 101.851 35.7201 101.841 35.7376C101.832 35.7551 101.819 35.7698 101.802 35.7804C101.785 35.791 101.766 35.7971 101.747 35.798Z" fill="#ACC9C5"/>
<path d="M101.031 36.6232L98.1091 36.9395C98.065 36.9383 98.0218 36.9272 97.9825 36.9071C97.9433 36.887 97.909 36.8584 97.8822 36.8234C97.8082 36.6899 97.9192 36.6381 97.9833 36.6306L100.943 36.3836C100.978 36.3829 101.013 36.3929 101.042 36.4123C101.071 36.4317 101.094 36.4596 101.108 36.4923C101.115 36.5057 101.119 36.5207 101.118 36.536C101.118 36.5512 101.114 36.5661 101.106 36.5792C101.099 36.5924 101.088 36.6033 101.075 36.611C101.061 36.6187 101.047 36.6229 101.031 36.6232Z" fill="#ACC9C5"/>
<path d="M114.067 58.0888C114.504 59.079 114.609 60.1839 114.368 61.239C114.193 61.9167 113.85 62.539 113.37 63.0475L113.281 63.139C112.395 64.0358 111.086 64.6214 109.547 64.7894C109.07 64.8403 108.59 64.8527 108.112 64.8265C104.889 64.656 101.562 62.8153 100.304 59.6874C99.2067 56.9573 99.5642 54.1851 101.717 52.72C102.5 52.2075 103.389 51.8798 104.316 51.7614C106.783 51.3908 109.789 52.6681 111.917 54.8497C112.838 55.7788 113.568 56.8791 114.067 58.0888Z" fill="#DAEBE8"/>
<path d="M106.935 58.2741L108.109 64.8313C104.886 64.6608 101.559 62.8202 100.301 59.6923C99.204 56.9621 99.5616 54.19 101.714 52.7249L106.935 58.2741Z" fill="#71A99E"/>
<path d="M113.367 63.0499C112.482 64.0011 111.135 64.6213 109.544 64.7942C109.068 64.8451 108.588 64.8575 108.109 64.8313L106.935 58.274L113.367 63.0499Z" fill="#EF8062"/>
<path d="M114.368 61.2389C114.193 61.9177 113.848 62.5409 113.367 63.0499L113.278 63.1413L106.935 58.274L114.368 61.2389Z" fill="#ACC9C5"/>
<path d="M114.067 58.0888C114.504 59.079 114.609 60.1839 114.368 61.239L106.938 58.2741L111.917 54.8497C112.837 55.7788 113.568 56.8791 114.067 58.0888Z" fill="#DAEBE8"/>
<path d="M109.002 54.0393L105.192 54.4519C105.135 54.4507 105.08 54.437 105.03 54.4118C104.979 54.3866 104.935 54.3505 104.901 54.3062C104.809 54.1406 104.952 54.0739 105.036 54.0591L108.881 53.7305C108.926 53.7289 108.97 53.7411 109.008 53.7654C109.046 53.7896 109.076 53.8249 109.093 53.8664C109.103 53.8832 109.109 53.9024 109.11 53.9222C109.11 53.9419 109.106 53.9614 109.097 53.9789C109.087 53.9964 109.074 54.0111 109.057 54.0217C109.041 54.0323 109.022 54.0384 109.002 54.0393Z" fill="#ACC9C5"/>
<path d="M108.289 54.8497L105.414 55.1611C105.37 55.1595 105.327 55.1481 105.288 55.1276C105.249 55.107 105.215 55.0779 105.189 55.0425C105.176 55.0243 105.168 55.0029 105.166 54.9805C105.164 54.958 105.169 54.9356 105.179 54.9156C105.189 54.8956 105.205 54.8788 105.224 54.8672C105.243 54.8556 105.265 54.8495 105.288 54.8497L108.19 54.6027C108.225 54.6022 108.26 54.6123 108.289 54.6317C108.318 54.6511 108.34 54.6789 108.353 54.7114C108.362 54.7241 108.367 54.7388 108.368 54.7541C108.369 54.7695 108.367 54.7848 108.36 54.7988C108.354 54.8127 108.344 54.8247 108.331 54.8336C108.319 54.8426 108.304 54.8481 108.289 54.8497Z" fill="#ACC9C5"/>
<path d="M65.9535 116.699L71.9338 115.11L68.3998 98.0624L62.7747 99.6436L65.9535 116.699Z" fill="#71A99E"/>
<path d="M75.9168 114.122L81.8995 112.533L75.9168 83.6779L70.479 84.933L75.9168 114.122Z" fill="#EF8062"/>
<path d="M86.5974 111.177L92.5801 109.591L87.934 87.179L82.2891 88.0561L86.5974 111.177Z" fill="#366F90"/>
<path d="M96.8416 108.111L102.824 106.522L96.8416 77.6666L91.4014 78.9217L96.8416 108.111Z" fill="#71A99E"/>
</svg>
