<svg width="177" height="185" viewBox="0 0 177 185" fill="none" xmlns="http://www.w3.org/2000/svg">
<path d="M121.268 88.7566C120.634 89.7957 119.809 92.1426 119.186 93.1945C118.915 93.651 118.109 95.2491 118.515 95.5862C118.87 95.8785 120.101 94.9227 120.63 94.3935C120.841 97.9118 122.704 102.951 122.772 95.5457H122.784C122.846 96.2945 123.184 100.468 124.129 99.9942C124.964 99.5674 124.842 96.5804 124.764 95.3451H124.797C124.992 96.5932 125.537 99.5909 126.206 98.9316C127.051 98.1038 126.986 94.816 126.986 94.816C126.986 94.816 127.149 99.0148 128.227 98.1806C128.836 97.7112 128.498 95.3152 128.267 93.8281C128.219 93.5166 128.174 93.2435 128.145 93.0366C128.123 92.8818 128.084 92.73 128.028 92.5843C127.748 91.2204 127.315 89.8932 126.736 88.6286C126.546 88.0686 126.173 87.5908 125.677 87.2742C125.182 86.9576 124.594 86.8212 124.011 86.8876C122.632 86.9922 121.547 88.3086 121.268 88.7566Z" fill="#FFB27D"/>
<path d="M119.644 89.2644C111.863 84.1054 120.222 68.142 116.986 57.1072C116.238 54.5469 115.914 53.5889 115.265 52.168C114.745 51.0244 116.149 48.7969 118.077 47.8752C119.887 47.0218 123.979 47.4336 124.577 48.159C131.088 56.0745 131.511 71.4661 128.899 89.9578C128.902 89.9578 122.983 91.4791 119.644 89.2644Z" fill="#71A99E"/>
<path d="M108.08 156.177C108.08 156.177 108.146 158.838 109.93 159.591C111.715 160.344 116.885 161.019 114.952 162.73C113.844 163.711 108.619 163.077 107.146 163.077C105.672 163.077 104.285 163.718 103.189 162.73C101.984 161.633 103.189 156.18 103.189 156.18C103.189 156.18 104.458 156.85 105.606 156.82C107.256 156.766 108.08 156.177 108.08 156.177Z" fill="#331832"/>
<path d="M123.476 75.8699C123.476 75.8699 123.831 87.8776 120.033 110.914C117.285 127.545 114.056 144.302 112.466 152.337C112.205 153.72 111.491 154.974 110.439 155.897C109.386 156.82 108.057 157.36 106.663 157.428L105.139 157.49C102.069 157.613 99.5778 154.953 99.8019 151.791L103.655 97.436L104.604 79.546L123.476 75.8699Z" fill="#0070B8"/>
<path d="M91.1791 156.177C91.1791 156.177 91.2446 158.838 93.0293 159.591C94.8139 160.344 99.9838 161.019 98.0512 162.73C96.9432 163.711 91.7183 163.077 90.2445 163.077C88.7707 163.077 87.3836 163.718 86.2883 162.73C85.083 161.633 86.2883 156.18 86.2883 156.18C86.2883 156.18 87.557 156.85 88.7051 156.82C90.3565 156.766 91.1791 156.177 91.1791 156.177Z" fill="#331832"/>
<path d="M106.575 75.8699C106.575 75.8699 106.93 87.8776 103.132 110.914C100.383 127.545 97.1546 144.302 95.5645 152.337C95.3041 153.72 94.5902 154.974 93.5377 155.897C92.4852 156.82 91.1554 157.36 89.7623 157.428L88.2357 157.49C85.1654 157.613 82.6746 154.953 82.8987 151.791L86.7534 97.436L87.7028 79.546L106.575 75.8699Z" fill="#0070B8"/>
<path d="M85.838 89.0298C85.8739 90.4785 94.5581 91.0545 105.291 90.7153C116.024 90.3761 124.611 88.8783 124.573 87.4296C124.535 85.9809 115.904 85.1296 105.158 85.4688C94.4122 85.8081 85.7999 87.5811 85.838 89.0298Z" fill="#331832"/>
<path d="M88.4661 48.0055C88.4661 48.0055 90.3691 40.4121 104.376 40.3246C124.58 40.2136 122.708 58.9464 124.577 87.4126C124.577 87.4126 104.676 84.5728 85.8272 88.6543C85.8272 88.6735 84.0785 59.6164 88.4661 48.0055Z" fill="#71A99E"/>
<path d="M83.2941 46.9237L92.4456 52.0315C92.4456 52.0315 112.48 53.8685 117.801 52.9831C123.121 52.0976 124.58 48.159 124.58 48.159C124.58 48.159 118.913 42.2448 109.285 40.6659C108.38 40.5166 107.442 40.4056 106.469 40.3416C104.848 40.2303 103.221 40.2631 101.606 40.4398C89.3987 41.8181 83.2941 46.9237 83.2941 46.9237Z" fill="#71A99E"/>
<path d="M122.888 88.603C122.888 88.603 111.258 85.1488 87.153 89.8832L86.9669 93.3801L122.292 94.6389L122.888 88.603Z" fill="#0070B8"/>
<path d="M81.5412 88.6734C82.387 79.3155 89.24 54.8221 90.0393 53.4801C90.6737 52.4005 89.5318 50.0301 87.7134 48.8993C86.0091 47.8325 83.8037 46.4884 83.292 46.9215C76.09 53.0491 69.8924 75.4367 71.8462 87.8413L81.5412 88.6734Z" fill="#71A99E"/>
<path d="M71.8482 87.8456C71.7911 89.2004 73.9268 90.4059 76.6185 90.5574C79.3103 90.7089 81.539 89.7168 81.596 88.3619C81.6531 87.0071 79.5175 85.8017 76.8258 85.6502C74.134 85.4987 71.9096 86.4908 71.8482 87.8456Z" fill="#331832"/>
<path d="M124.696 87.4402C124.713 87.2375 126.337 67.0902 120.545 54.6045L120.334 54.7069C126.098 67.1307 124.48 87.2204 124.463 87.421L124.696 87.4402Z" fill="#331832"/>
<path d="M85.5969 69.3646C86.5436 65.5204 88.1402 61.8698 90.3164 58.573L90.1261 58.4343C87.9324 61.7584 86.3237 65.4395 85.3706 69.3155L85.5969 69.3646Z" fill="#331832"/>
<path d="M102.545 115.328C102.578 115.16 105.993 98.4175 106.725 95.7932C107.435 93.2627 110.019 92.6653 110.045 92.6589L109.981 92.3688C109.954 92.3688 107.199 93.0088 106.442 95.7142C105.704 98.3449 102.289 115.1 102.255 115.268L102.545 115.328Z" fill="#331832"/>
<path d="M80.3527 100.515L81.6489 100.278L80.6699 94.9312C80.5328 94.2695 80.1747 93.6753 79.6555 93.2481C79.1363 92.8209 78.4874 92.5866 77.8175 92.5843H73.4595C72.8495 92.5817 72.2539 92.7719 71.7564 93.1281C71.2589 93.4844 70.8844 93.9888 70.6853 94.5706V94.5941L68.8837 100.613L70.1524 100.997L71.9497 94.9909C72.0608 94.674 72.2668 94.3998 72.5392 94.2064C72.8116 94.0129 73.137 93.9098 73.4701 93.9113H77.828C78.1941 93.9122 78.5488 94.0398 78.8328 94.2728C79.1168 94.5058 79.313 94.8301 79.3885 95.1915L80.3527 100.515Z" fill="#331832"/>
<path d="M67.2282 116.805L87.392 118.68C88.0714 118.746 88.749 118.537 89.277 118.101C89.805 117.665 90.1406 117.035 90.2106 116.35L91.6231 101.946C91.657 101.587 91.6169 101.225 91.5053 100.882C91.3938 100.54 91.2132 100.224 90.9749 99.955C90.7366 99.6861 90.4457 99.4698 90.1206 99.3198C89.7955 99.1698 89.4432 99.0892 89.0857 99.0832L64.6485 98.5135C64.2576 98.5023 63.8692 98.5809 63.5129 98.7436C63.1565 98.9062 62.8416 99.1485 62.5918 99.4521C62.342 99.7558 62.1639 100.113 62.0711 100.496C61.9783 100.88 61.9732 101.279 62.0561 101.665L64.9319 114.763C65.0512 115.305 65.3379 115.794 65.7505 116.161C66.1632 116.528 66.6805 116.753 67.2282 116.805Z" fill="#EF8062"/>
<path d="M76.3439 108.902L62.4728 103.916L62.5743 103.625L76.3587 108.58L91.306 104.652L91.3843 104.95L76.3439 108.902Z" fill="#331832"/>
<path d="M76.1154 110.05C76.3397 110.05 76.5548 109.96 76.7134 109.8C76.8721 109.64 76.9612 109.423 76.9612 109.196V108.379C76.9612 108.153 76.8721 107.936 76.7134 107.776C76.5548 107.616 76.3397 107.526 76.1154 107.526C75.8911 107.526 75.6759 107.616 75.5173 107.776C75.3587 107.936 75.2696 108.153 75.2696 108.379V109.196C75.2696 109.423 75.3587 109.64 75.5173 109.8C75.6759 109.96 75.8911 110.05 76.1154 110.05Z" fill="#331832"/>
<path d="M81.3529 92.5543C80.9916 91.7558 80.6733 90.9382 80.3993 90.105C80.135 89.3668 79.5831 87.8712 79.3822 87.3868C78.9064 86.2368 75.9313 86.1067 74.9037 86.7468C73.8761 87.3868 73.5272 89.0574 72.8463 91.3574C72.7825 91.4935 72.7349 91.6367 72.7046 91.7841C72.4636 92.9 71.918 94.4404 72.5947 95.0314C73.3326 95.6715 73.7915 94.5663 73.9776 93.9646C73.8507 94.5236 73.7027 95.5968 74.2461 96.2028C74.8191 96.8428 75.4725 95.0954 75.758 94.2079C75.5465 95.0058 75.2737 96.5548 75.9969 96.9815C76.8427 97.4786 77.5088 95.1018 77.6885 94.5578H77.7519C78.2531 97.931 79.5894 96.2241 79.8918 93.6105C80.3802 94.1524 81.4904 95.1232 81.8477 94.8714C82.2706 94.5812 81.5855 93.0067 81.3529 92.5543Z" fill="#FFB27D"/>
<path d="M102.147 38.7436L102.832 35.204L103.031 34.1735L104.198 28.1099L105.08 33.9025L105.608 37.3802L105.776 38.4812C105.89 39.2279 106.365 39.3346 106.993 39.9192C107.249 40.156 108.869 41.5898 107.311 42.5072C105.367 43.6487 101.39 42.7206 99.7513 41.1119C99.7619 41.1012 101.936 39.8979 102.147 38.7436Z" fill="#FFB27D"/>
<path d="M108.619 25.3596C108.961 26.3891 109.081 27.48 108.973 28.56C108.799 30.3799 106.509 26.2258 106.509 26.2258L108.619 25.3596Z" fill="#5C305D"/>
<path d="M109.243 29.0401C108.412 25.6583 105.465 23.4928 102.657 24.2011C99.8486 24.9095 98.2479 28.2229 99.0768 31.6046C99.9057 34.9863 102.855 37.1519 105.663 36.4436C108.472 35.7352 110.074 32.4303 109.243 29.0401Z" fill="#FFB27D"/>
<path d="M98.749 29.8231L101.238 29.2663C101.508 29.208 101.763 29.0895 101.982 28.9193C102.202 28.7491 102.381 28.5316 102.506 28.2827C102.929 27.4143 103.509 26.9279 105.866 26.7401C108.852 26.5033 110.622 24.4999 110.77 22.8997C110.922 21.2739 109.29 20.3757 107.871 21.3081C106.452 22.2404 106.896 20.3074 105.439 20.2797C102.714 20.2263 102.441 22.3535 100.235 22.5434C97.345 22.793 92.4245 25.5859 95.4335 30.3715L98.749 29.8231Z" fill="#331832"/>
<path d="M104.405 30.0258C104.421 30.0117 104.433 29.9928 104.439 29.9718C104.444 29.9508 104.443 29.9287 104.436 29.9082C104.428 29.8878 104.415 29.8702 104.397 29.8576C104.38 29.8451 104.359 29.8382 104.337 29.838C104.083 29.8315 103.834 29.9097 103.628 30.0604C103.422 30.2112 103.271 30.4262 103.198 30.6722C103.188 30.6988 103.19 30.7282 103.201 30.7538C103.213 30.7794 103.235 30.7992 103.261 30.8088C103.288 30.8154 103.315 30.8127 103.34 30.8011C103.365 30.7894 103.385 30.7695 103.397 30.7448C103.628 30.4158 103.96 30.1723 104.342 30.0514C104.365 30.05 104.387 30.041 104.405 30.0258Z" fill="#080435"/>
<path d="M104.101 31.4294C104.008 31.1941 104.071 30.9478 104.241 30.8793C104.411 30.8109 104.625 30.9462 104.718 31.1815C104.811 31.4169 104.748 31.6632 104.578 31.7316C104.407 31.8001 104.194 31.6648 104.101 31.4294Z" fill="#080435"/>
<path d="M108.279 29.2555C108.292 29.2509 108.303 29.243 108.312 29.2325C108.321 29.222 108.327 29.2094 108.33 29.1958C108.336 29.1696 108.334 29.1419 108.324 29.1169C108.314 29.092 108.296 29.071 108.273 29.0571C108.188 29.001 108.093 28.9629 107.993 28.9449C107.893 28.927 107.79 28.9297 107.692 28.9528C107.593 28.976 107.5 29.0191 107.418 29.0795C107.336 29.14 107.267 29.2166 107.215 29.3046C107.202 29.3276 107.196 29.3542 107.199 29.3807C107.202 29.4071 107.213 29.432 107.23 29.4518C107.238 29.4604 107.247 29.4673 107.257 29.472C107.267 29.4767 107.278 29.4792 107.289 29.4792C107.301 29.4792 107.312 29.4767 107.322 29.472C107.332 29.4673 107.341 29.4604 107.349 29.4518C107.473 29.3565 107.615 29.2883 107.767 29.2515C107.919 29.2148 108.077 29.2104 108.23 29.2385C108.244 29.2502 108.261 29.2563 108.279 29.2555Z" fill="#080435"/>
<path d="M107.433 30.4504C107.433 30.7043 107.575 30.9091 107.759 30.9112C107.943 30.9134 108.095 30.6979 108.097 30.4546C108.099 30.2114 107.955 29.9959 107.772 29.9938C107.588 29.9917 107.433 30.1965 107.433 30.4504Z" fill="#080435"/>
<path d="M95.4335 30.38C95.4335 30.38 97.5861 33.9239 100.083 33.9239C100.083 33.9239 97.7743 31.2996 101.775 29.0636C101.783 29.0529 97.8567 28.8993 95.4335 30.38Z" fill="#5C305D"/>
<path d="M99.1379 32.042C99.3906 32.1821 99.6878 32.216 99.9651 32.136C100.242 32.0561 100.477 31.8689 100.618 31.6152C100.674 31.4847 100.704 31.3443 100.705 31.2021C100.706 31.0599 100.68 30.9189 100.626 30.7873C100.573 30.6557 100.494 30.5362 100.394 30.4358C100.294 30.3355 100.176 30.2562 100.045 30.2028C99.7924 30.0626 99.4951 30.0288 99.2179 30.1087C98.9407 30.1886 98.706 30.3758 98.5649 30.6295C98.5089 30.76 98.4794 30.9005 98.4779 31.0427C98.4765 31.1849 98.5033 31.3259 98.5567 31.4575C98.6101 31.5891 98.689 31.7086 98.7888 31.8089C98.8886 31.9093 99.0073 31.9885 99.1379 32.042Z" fill="#FFB27D"/>
<path d="M101.783 29.0529C101.783 29.0529 101.794 32.2404 102.502 32.761C103.211 33.2816 107.469 33.0405 109.36 32.0463C109.486 33.0306 109.261 34.0283 108.724 34.8601C108.188 35.6919 107.374 36.3033 106.431 36.5844C105.775 36.7753 105.091 36.8532 104.41 36.8148C102.999 36.7359 101.593 36.3219 100.88 35.1079C100.669 34.7388 100.904 32.2788 100.904 32.2788C100.904 32.2788 100.938 30.8472 100.037 30.2114C100.033 30.2093 100.878 29.2491 101.783 29.0529Z" fill="#5C305D"/>
<path d="M108.442 33.3051C107.363 33.7053 106.227 33.93 105.078 33.9707C105.078 33.9707 105.52 35.5794 107.275 35.0375C108.298 34.7303 108.442 33.3051 108.442 33.3051Z" fill="white"/>
<path d="M107.385 21.1224C107.446 21.1224 107.508 21.1181 107.569 21.1096L107.547 20.9645C107.494 20.9735 107.441 20.9785 107.387 20.9794C107.241 20.9873 107.097 20.9442 106.979 20.8576C106.862 20.7709 106.777 20.6459 106.74 20.5037L106.6 20.5335C106.644 20.7076 106.746 20.8611 106.889 20.9683C107.032 21.0755 107.207 21.1299 107.385 21.1224Z" fill="#331832"/>
<path d="M106.617 25.8162C106.746 25.7628 109.755 24.4742 109.704 22.7844C109.689 22.2958 109.569 21.9779 109.336 21.8179C108.97 21.5682 108.387 21.7731 107.879 21.9544L107.668 22.0334L107.691 22.0995L107.903 22.0206C108.393 21.8456 108.96 21.6472 109.298 21.8797C109.51 22.0248 109.62 22.3235 109.632 22.7844C109.681 24.4294 106.621 25.7372 106.59 25.75L106.617 25.8162Z" fill="white"/>
<path d="M99.2015 23.2815C102.278 23.2815 103.557 21.3954 103.57 21.3784L103.511 21.3357C103.498 21.357 102.242 23.2132 99.2015 23.2132H99.0662V23.2858L99.2015 23.2815Z" fill="white"/>
<path d="M115.149 75.3685C115.149 75.3685 114.565 80.7814 110.751 83.7108C109.157 82.5895 107.773 81.1916 106.664 79.5823C105.758 78.3375 105.163 76.8905 104.93 75.3643C104.829 74.1145 104.805 72.8597 104.858 71.607C104.913 70.2266 105.004 68.588 105.095 66.8001C105.26 63.6701 105.496 60.1156 105.661 56.7723C105.752 54.931 105.826 53.1452 105.862 51.5429C105.936 48.1292 105.843 45.4665 105.424 44.5277L107.247 43.9517C107.247 43.9517 108.032 45.9956 109.108 49.1085C109.51 50.3054 109.966 51.6496 110.44 53.0855C111.17 55.3876 111.954 57.9479 112.667 60.5253C113.049 61.9441 113.434 63.38 113.743 64.7796C114.417 67.6706 114.929 70.4336 115.094 72.7528C115.184 73.6217 115.202 74.4966 115.149 75.3685Z" fill="#EF8062"/>
<path d="M104.409 41.6047C104.409 41.6047 106.871 40.8366 107.524 41.4318C108.178 42.0271 107.698 44.7559 106.564 44.9992C105.431 45.2424 103.289 42.2618 104.409 41.6047Z" fill="#EF8062"/>
<path d="M105.854 40.9645C105.854 40.9645 102.642 39.8188 102.014 38.6731C101.386 37.5274 98.0596 40.1666 98.1188 40.9645C98.178 41.7625 104.168 46.1406 104.56 45.588C104.951 45.0354 106.64 41.7113 105.854 40.9645Z" fill="#72BBAC"/>
<path d="M105.854 40.9646C105.854 40.9646 106.334 39.7613 106.103 39.1084C106.103 39.1084 105.951 38.5345 106.439 38.5729C106.928 38.6113 109.592 40.4931 109.823 41.0628C110.053 41.6324 110.098 44.3229 109.235 44.5192C108.372 44.7154 106.296 41.8309 106.063 41.545C105.991 41.4673 105.936 41.3759 105.9 41.2762C105.864 41.1765 105.848 41.0706 105.854 40.9646Z" fill="#72BBAC"/>
<path d="M106.545 45.0589H106.566C107.313 45.0439 107.719 43.5654 107.736 43.5078L107.621 43.4779C107.621 43.4928 107.222 44.9287 106.564 44.9373H106.547C105.877 44.9373 105.279 44.3121 105.279 44.2972L105.194 44.3825C105.209 44.4167 105.824 45.0589 106.545 45.0589Z" fill="#331832"/>
</svg>
