<svg width="249" height="170" viewBox="0 0 249 170" fill="none" xmlns="http://www.w3.org/2000/svg">
<path d="M249 31.8779V137.73C249 144.931 246.352 151.141 241.95 156.076C235.974 162.774 226.762 167.133 216.534 168.463C211.039 169.178 205.501 169.625 199.515 169.841C194.202 170.033 188.536 170.047 182.235 169.906C168.858 169.608 152.617 168.623 130.816 167.214C127.223 166.981 123.096 166.842 118.593 166.768C109.575 166.623 99.0441 166.758 88.2552 167.005C85.6412 167.063 83.0114 167.13 80.3844 167.2C78.6424 167.246 76.9037 167.294 75.1685 167.345C58.9604 167.809 43.309 168.366 32.4597 168.459C14.5328 168.611 0 154.699 0 137.722V31.8779C0 14.9051 14.5634 0.146991 32.4597 1.14151C37.7545 1.43773 43.8405 2.01067 50.5016 2.58269L51.1509 2.63933C53.1775 2.81143 55.2528 2.98043 57.377 3.14634L58.0264 3.19556C58.9812 3.26799 59.945 3.33825 60.9177 3.40635C72.6899 4.22629 85.7107 4.66552 99.0126 3.49271C107.645 2.73219 118.484 2.00696 130.261 1.40988C131.972 1.32383 133.703 1.24087 135.455 1.16101L135.749 1.14708C139.543 0.972509 143.411 0.815577 147.315 0.677217L147.5 0.669788C172.716 -0.230017 199.314 -0.361877 216.538 1.14244C225.133 1.89367 232.975 5.10938 238.796 10.1386C241.619 12.5725 243.964 15.4316 245.694 18.6436C246.396 19.944 246.992 21.2989 247.477 22.695C248.495 25.6489 249.01 28.7531 249 31.8779Z" fill="#DAEBE8"/>
</svg>
