<svg width="180" height="183" viewBox="0 0 180 183" fill="none" xmlns="http://www.w3.org/2000/svg">
<path d="M76.5004 44.6154C76.5004 44.6154 89.4911 62.4526 89.9404 67.3142C90.3898 72.1758 92.0424 75.4048 82.6763 71.925C75.9339 69.4187 68.772 53.856 68.772 53.856L71.6789 47.9698L76.5004 44.6154Z" fill="#FFB27D"/>
<path d="M29.6551 144.481C29.6551 144.481 38.9232 104.925 40.3607 103.765C41.7982 102.604 44.0151 103.635 43.2336 105.827C42.452 108.018 31.674 143.68 31.2225 144.479C30.771 145.278 29.3889 145.587 29.6551 144.481Z" fill="#68A1BF"/>
<path d="M88.8054 86.6968C83.9797 80.615 64.4574 65.7433 54.4226 60.55C41.6449 53.924 26.1348 51.3157 21.4667 62.0785C16.7986 72.8412 32.4364 105.994 32.4364 105.994C32.4364 105.994 33.3053 108.939 36.4827 109.268C39.6601 109.598 79.0986 109.279 84.9316 109.268C102.009 109.23 98.5016 98.9306 88.8054 86.6968Z" fill="#EF8062"/>
<path d="M99.4748 138.512C99.4748 138.512 99.5152 141.714 101.694 142.642C103.872 143.571 110.212 144.469 107.817 146.494C106.439 147.657 100.031 146.813 98.2183 146.79C96.406 146.766 94.6938 147.525 93.3628 146.309C91.8976 144.972 93.465 138.433 93.465 138.433C93.465 138.433 95.0175 139.258 96.4252 139.239C98.4547 139.216 99.4748 138.512 99.4748 138.512Z" fill="#331832"/>
<path d="M118.858 137.998C118.858 137.998 118.893 141.199 121.071 142.132C123.25 143.066 129.59 143.973 127.187 145.995C125.807 147.155 119.399 146.301 117.587 146.273C115.775 146.246 114.063 147.002 112.732 145.784C111.269 144.445 112.849 137.919 112.849 137.919C112.849 137.919 114.401 138.746 115.807 138.731C117.834 138.699 118.858 137.998 118.858 137.998Z" fill="#331832"/>
<path d="M117.18 139.36C118.973 139.169 120.622 138.294 121.784 136.917C122.945 135.541 123.529 133.769 123.414 131.973C121.953 111.003 119.976 100.44 112.802 91.703C108.185 86.0932 101.459 80.7618 93.3839 77.8495C86.4221 75.339 80.5572 74.2782 72.9395 74.4844C60.5302 74.8224 54.8696 77.1331 54.8696 77.1331C47.2626 96.9537 61.9996 98.2419 72.784 97.8486C73.1404 97.8359 73.4953 97.8252 73.8488 97.8167C80.3847 97.6679 92.0891 98.3141 97.0213 104.322C100.927 109.079 103.951 115.964 106.562 134.171C106.812 135.86 107.711 137.385 109.068 138.424C110.425 139.462 112.134 139.932 113.833 139.735L117.18 139.36Z" fill="#0070B8"/>
<path d="M99.3831 141.969C101.176 141.777 102.825 140.902 103.987 139.525C105.148 138.149 105.732 136.378 105.616 134.582C104.156 113.611 102.179 103.048 95.0046 94.3113C90.3939 88.6971 83.8517 84.7199 75.559 82.4899C69.6408 80.8999 62.7813 80.1962 55.17 80.4046C42.7607 80.7426 37.0831 79.7413 37.0831 79.7413C29.2163 104.953 65.3198 96.6709 75.7421 106.241C80.2846 110.412 86.1773 118.57 88.784 136.782C89.0342 138.468 89.932 139.992 91.2873 141.03C92.6425 142.067 94.3491 142.538 96.046 142.343L99.3831 141.969Z" fill="#0070B8"/>
<path d="M40.3479 44.2157C40.3479 44.2157 44.1621 34.2502 57.1933 34.9411C70.2244 35.6319 75.6677 52.9314 82.9489 75.0754C82.9489 75.0754 82.9617 77.4137 71.9963 80.3664C64.8748 82.2795 57.1784 80.2771 42.9333 89.5326C39.577 91.7136 33.8569 89.1691 33.6354 85.2088C33.1945 77.3202 34.8365 62.2528 40.3479 44.2157Z" fill="#71A99E"/>
<path d="M28.8989 45.7888L40.3499 49.3707C40.3499 49.3707 64.059 52.1108 70.3776 51.1096C76.6962 50.1083 78.5042 45.1744 78.5042 45.1744C78.5042 45.1744 71.9024 37.6025 60.5238 35.4066C59.4225 35.1929 58.3107 35.0368 57.1931 34.9389C55.2594 34.771 53.4002 34.5946 51.5049 34.7922C32.9622 36.7118 28.8989 45.7888 28.8989 45.7888Z" fill="#71A99E"/>
<path d="M28.8989 45.7888C28.2856 47.1365 30.9689 48.4013 34.257 49.6151C37.5452 50.8289 40.4777 51.0607 40.8078 50.1572C41.1379 49.2538 38.7378 47.5447 35.4496 46.3308C32.1615 45.117 29.2972 44.9108 28.8989 45.7888Z" fill="#331832"/>
<path d="M54.8441 33.2064L56.8076 29.7882L57.3784 28.7933L60.7368 22.9432L59.6124 29.2419L58.9373 33.0214L58.7243 34.2183C58.5795 35.0303 59.0395 35.3066 59.4888 36.1314C59.672 36.4673 60.8582 38.525 58.9074 38.9183C56.4754 39.4072 52.6549 37.0476 51.5049 34.788C51.5177 34.7922 54.2095 34.3097 54.8441 33.2064Z" fill="#FFB27D"/>
<path d="M66.3249 21.6827C66.3176 22.8649 66.0592 24.0321 65.5668 25.1073C64.7426 26.9249 63.8184 21.8209 63.8184 21.8209L66.3249 21.6827Z" fill="#5C305D"/>
<path d="M65.6776 25.7025C66.0034 21.9144 63.6885 18.6259 60.5068 18.3602C57.3252 18.0945 54.4821 20.9472 54.1563 24.7374C53.8305 28.5277 56.1454 31.8141 59.327 32.0798C62.5087 32.3455 65.3517 29.4906 65.6776 25.7025Z" fill="#FFB27D"/>
<path d="M54.4417 22.7818L57.2379 23.0921C57.5411 23.1281 57.8486 23.096 58.1378 22.9981C58.4271 22.9003 58.6907 22.7392 58.9096 22.5267C59.6614 21.7827 60.4345 21.4829 62.9559 22.1292C66.1504 22.9455 68.7059 21.5063 69.43 19.912C70.1626 18.2858 68.7655 16.7744 66.9639 17.2357C65.1622 17.697 66.2994 15.8561 64.7853 15.3076C61.972 14.2851 60.9307 16.3854 58.5646 15.7965C55.4575 15.027 49.3327 16.1643 50.7851 22.1738L54.4417 22.7818Z" fill="#331832"/>
<path d="M60.2684 25.0032C60.2896 24.9946 60.3077 24.9799 60.3204 24.9609C60.3332 24.942 60.34 24.9197 60.34 24.8969C60.34 24.8741 60.3332 24.8518 60.3204 24.8329C60.3077 24.8139 60.2896 24.7992 60.2684 24.7906C60.0043 24.6919 59.7148 24.6831 59.4451 24.7658C59.1755 24.8485 58.9408 25.0179 58.7777 25.2477C58.7678 25.2594 58.7605 25.2731 58.756 25.2877C58.7515 25.3024 58.75 25.3178 58.7516 25.3331C58.7532 25.3483 58.7578 25.3631 58.7652 25.3766C58.7726 25.39 58.7827 25.4018 58.7947 25.4113C58.8198 25.4279 58.8499 25.4352 58.8798 25.4321C58.9097 25.429 58.9376 25.4157 58.9587 25.3943C59.3171 25.1365 59.7502 25.0029 60.1918 25.0138C60.2178 25.0191 60.2448 25.0153 60.2684 25.0032Z" fill="#080435"/>
<path d="M59.8501 26.8262C60.0533 26.816 60.2067 26.5843 60.1928 26.3088C60.1788 26.0332 60.0028 25.8181 59.7996 25.8284C59.5964 25.8386 59.4429 26.0703 59.4569 26.3458C59.4708 26.6214 59.6468 26.8365 59.8501 26.8262Z" fill="#080435"/>
<path d="M64.5871 25.5813C64.6022 25.5814 64.617 25.5776 64.6301 25.5701C64.6432 25.5626 64.6541 25.5518 64.6616 25.5388C64.6786 25.5153 64.6878 25.487 64.6878 25.458C64.6878 25.429 64.6786 25.4007 64.6616 25.3772C64.5929 25.2882 64.5067 25.2142 64.4083 25.1596C64.3099 25.105 64.2013 25.071 64.0893 25.0596C63.9773 25.0483 63.8642 25.0599 63.7568 25.0936C63.6494 25.1274 63.5501 25.1827 63.4648 25.2561C63.4424 25.2747 63.4265 25.3001 63.4196 25.3284C63.4127 25.3567 63.4151 25.3865 63.4265 25.4134C63.431 25.4249 63.4379 25.4354 63.4468 25.4441C63.4557 25.4527 63.4664 25.4594 63.4781 25.4636C63.4898 25.4679 63.5022 25.4695 63.5146 25.4686C63.527 25.4676 63.5391 25.464 63.55 25.458C63.7136 25.4048 63.8866 25.3862 64.0578 25.4034C64.229 25.4206 64.3948 25.4733 64.5445 25.5579C64.5559 25.57 64.5708 25.5782 64.5871 25.5813Z" fill="#080435"/>
<path d="M63.2859 26.5145C63.1922 26.7739 63.2731 27.0396 63.4627 27.1076C63.6522 27.1756 63.8886 27.0183 63.978 26.7569C64.0675 26.4954 63.9908 26.2318 63.8013 26.1638C63.6117 26.0958 63.3796 26.2552 63.2859 26.5145Z" fill="#080435"/>
<path d="M50.7808 22.178C50.7808 22.178 51.7774 26.6081 54.3905 27.4924C54.3905 27.4924 52.8997 23.9594 57.8809 23.0751C57.8809 23.0645 53.8346 21.5084 50.7808 22.178Z" fill="#5C305D"/>
<path d="M54.0647 25.2136C54.5566 25.6961 55.3126 25.7365 55.7492 25.3007C56.1858 24.865 56.141 24.1209 55.6491 23.6384C55.1572 23.1558 54.4011 23.1155 53.9646 23.5512C53.528 23.987 53.5706 24.7289 54.0647 25.2136Z" fill="#FFB27D"/>
<path d="M57.881 23.0645C57.881 23.0645 56.7672 26.3615 57.323 27.1502C57.8789 27.9389 62.4128 29.2058 64.7384 28.8508C64.5234 29.9131 63.9358 30.8641 63.0813 31.5327C62.2268 32.2014 61.1614 32.5438 60.0766 32.4986C59.3243 32.4625 58.5835 32.3001 57.8852 32.0182C56.4414 31.4357 55.1167 30.5068 54.8037 28.9975C54.7078 28.5383 55.8259 26.0831 55.8259 26.0831C55.8259 26.0831 56.3668 24.6163 55.6513 23.6385C55.647 23.6385 56.8779 22.9582 57.881 23.0645Z" fill="#5C305D"/>
<path d="M63.335 29.8243C62.0666 29.8541 60.8015 29.6826 59.5869 29.3163C59.5869 29.3163 59.4804 31.1359 61.5036 31.2061C62.6812 31.2486 63.335 29.8243 63.335 29.8243Z" fill="white"/>
<path d="M66.7339 16.9061C65.8374 16.7403 65.9247 15.975 65.9247 15.9686L66.0823 15.9856C66.0823 16.0133 66.0163 16.6234 66.7638 16.7488L66.7339 16.9061Z" fill="#331832"/>
<path d="M64.0762 21.4319V21.3532C64.1145 21.3532 67.7732 21.0854 68.3013 19.3699C68.4504 18.8895 68.4398 18.543 68.2715 18.3177C67.9947 17.9499 67.3388 17.9669 66.7638 17.9669H66.5082V17.8883H66.7638C67.36 17.8883 68.0415 17.8734 68.3333 18.2709C68.5207 18.5196 68.5335 18.8874 68.3759 19.3954C67.8286 21.1619 64.2295 21.4234 64.0762 21.4319Z" fill="white"/>
<path d="M59.523 16.581C58.687 16.5768 57.8581 16.4264 57.074 16.1367L57.1017 16.0644C60.3579 17.2314 62.3831 15.7179 62.4044 15.7073L62.4534 15.7668C62.4428 15.7774 61.363 16.581 59.523 16.581Z" fill="white"/>
<path d="M104.669 122.79H104.528C104.368 117.125 103.351 111.516 101.513 106.154C99.7494 101.122 97.3152 96.875 94.272 93.529C90.5348 89.3814 85.5972 86.4974 80.144 85.2768L80.1781 85.1387C85.6586 86.3648 90.6212 89.2621 94.3784 93.4291C97.4302 96.7899 99.8729 101.052 101.643 106.103C103.487 111.481 104.508 117.107 104.669 122.79Z" fill="#020202"/>
<path d="M45.593 147.442L45.2586 147.411C44.9988 147.385 44.805 146.962 44.8327 146.463L47.4202 83.4827L52.3375 81.0785L46.3746 146.173C46.3256 146.92 45.9806 147.481 45.593 147.442Z" fill="white"/>
<path d="M152.136 147.442L152.47 147.411C152.73 147.385 152.924 146.962 152.896 146.462L150.315 83.4848L145.398 81.0806L151.361 146.175C151.403 146.919 151.746 147.481 152.136 147.442Z" fill="white"/>
<path d="M141.047 86.3057C140.984 86.3041 140.923 86.2786 140.878 86.2345C140.833 86.1904 140.806 86.1308 140.803 86.0677C140.799 86.0046 140.82 85.9426 140.861 85.8941C140.901 85.8456 140.959 85.8142 141.022 85.8061C147.836 85.1174 153.273 84.3181 157.207 83.4423C157.239 83.4342 157.272 83.4326 157.305 83.4378C157.338 83.443 157.369 83.4549 157.397 83.4726C157.426 83.4902 157.45 83.5135 157.469 83.5408C157.487 83.5681 157.5 83.599 157.507 83.6315C157.514 83.6636 157.515 83.6968 157.509 83.7292C157.503 83.7616 157.491 83.7926 157.473 83.8202C157.456 83.8479 157.432 83.8718 157.405 83.8905C157.378 83.9092 157.348 83.9223 157.315 83.9291C153.365 84.8155 147.9 85.6127 141.075 86.3036L141.047 86.3057Z" fill="#444092"/>
<path d="M98.953 92.1729C134.953 92.1729 164.137 88.5791 164.137 84.146C164.137 79.7129 134.953 76.1191 98.953 76.1191C62.9532 76.1191 33.7695 79.7129 33.7695 84.146C33.7695 88.5791 62.9532 92.1729 98.953 92.1729Z" fill="#68A1BF"/>
<path d="M164.134 80.4449H33.7695V84.1459H164.134V80.4449Z" fill="#68A1BF"/>
<path d="M98.953 88.4719C134.953 88.4719 164.137 84.8782 164.137 80.4451C164.137 76.012 134.953 72.4182 98.953 72.4182C62.9532 72.4182 33.7695 76.012 33.7695 80.4451C33.7695 84.8782 62.9532 88.4719 98.953 88.4719Z" fill="#B8D5DC"/>
<path d="M44.8244 85.1429H44.7818C44.5199 85.094 38.3461 83.893 35.9269 82.7536C35.8734 82.7274 35.8323 82.6814 35.8124 82.6254C35.7925 82.5693 35.7954 82.5078 35.8204 82.4538C35.8481 82.4019 35.8942 82.3621 35.9497 82.3421C36.0051 82.3221 36.066 82.3232 36.1207 82.3454C38.4888 83.4636 44.8053 84.6838 44.867 84.705C44.92 84.7176 44.9666 84.749 44.9982 84.7932C45.0299 84.8374 45.0445 84.8915 45.0393 84.9456C45.0341 84.9998 45.0095 85.0502 44.97 85.0876C44.9305 85.125 44.8788 85.1469 44.8244 85.1493V85.1429Z" fill="#444092"/>
<path d="M64.1124 75.6259C66.3421 75.2985 68.0075 71.5444 66.3506 68.3983C61.5802 68.2113 41.8344 70.5751 40.0817 50.542C40.0689 50.3889 39.298 48.5225 35.9055 47.415C32.2404 46.2182 30.0171 46.1395 30.0171 46.1395C29.4698 48.1632 28.9523 53.8645 30.3834 59.7848C35.4391 80.6639 60.4388 76.1637 64.1124 75.6259Z" fill="#FFB27D"/>
<g opacity="0.3">
<path d="M39.2681 71.2022C38.7315 71.2022 38.0372 70.794 37.4814 70.0968C36.9873 69.4782 36.719 68.7661 36.7807 68.2389C36.7887 68.1273 36.8191 68.0185 36.8699 67.9188C36.9208 67.8191 36.9911 67.7306 37.0767 67.6585C37.3472 67.446 37.7412 67.446 38.1841 67.6373C38.6493 67.8617 39.0549 68.1923 39.3682 68.6024C39.8602 69.2188 40.1306 69.931 40.0689 70.4582C40.0604 70.5699 40.0299 70.6789 39.9791 70.7789C39.9283 70.8788 39.8582 70.9678 39.7728 71.0406C39.6283 71.151 39.45 71.2081 39.2681 71.2022ZM37.722 69.9033C38.3481 70.6877 39.2 71.0938 39.5812 70.7983C39.6352 70.7508 39.6791 70.6931 39.7106 70.6285C39.742 70.5639 39.7603 70.4937 39.7643 70.422C39.8133 69.9777 39.5663 69.34 39.1254 68.7937C38.844 68.4227 38.4793 68.1227 38.0606 67.9179C37.7263 67.7669 37.4409 67.7648 37.2727 67.8966C37.2188 67.9433 37.1749 68.0003 37.1434 68.0641C37.112 68.128 37.0936 68.1976 37.0895 68.2686C37.0384 68.7108 37.2876 69.3506 37.7284 69.9012L37.722 69.9033Z" fill="#EC865C"/>
</g>
<path d="M66.3505 68.3898C66.3505 68.3898 70.6757 67.023 72.9757 68.3898C75.2757 69.7567 77.1988 73.2344 75.5952 72.6881C73.9916 72.1418 72.1324 70.8791 72.1324 70.8791C72.1324 70.8791 75.9828 73.7616 74.9286 74.3653C73.8744 74.9691 70.5501 72.4288 70.5501 72.4288C70.5501 72.4288 74.8626 76.2233 73.6785 76.4677C72.4944 76.7122 69.2404 73.8063 69.2404 73.8063C69.2404 73.8063 73.112 77.4945 71.732 77.7474C70.352 78.0004 68.5525 74.6778 67.4983 75.2815C66.4442 75.8853 63.4201 76.4613 61.3586 73.7127L66.3505 68.3898Z" fill="#FFB27D"/>
<path d="M72.0644 70.9493C72.0644 70.9366 71.1209 70.014 70.3607 70.1436L70.3245 69.9502C71.1976 69.7844 72.1623 70.7686 72.2049 70.8005L72.0644 70.9493Z" fill="#E9845C"/>
<path d="M70.4906 72.4884C70.4906 72.4756 69.5727 71.5424 68.4185 71.5233V71.3256C69.6579 71.3468 70.5907 72.3119 70.629 72.3502L70.4906 72.4884Z" fill="#E9845C"/>
<path d="M69.1702 73.8764C69.1702 73.8764 68.2374 72.939 67.4665 72.939C67.3944 72.9387 67.3227 72.9487 67.2535 72.9687L67.2024 72.7774C67.2887 72.7556 67.3774 72.7441 67.4665 72.7434C68.3183 72.7434 69.2639 73.6936 69.3086 73.7383L69.1702 73.8764Z" fill="#E9845C"/>
<path d="M84.38 62.0721C84.38 62.0721 101.69 67.0507 105.165 70.522C108.641 73.9934 102.184 75.8152 102.184 75.8152C102.184 75.8152 82.9638 75.0945 82.0907 72.4373C79.5628 64.7719 84.38 62.0721 84.38 62.0721Z" fill="#FFB27D"/>
<path d="M74.7499 78.4404H104.831C105.136 78.442 105.434 78.3481 105.683 78.172C105.932 77.9959 106.12 77.7463 106.219 77.4583L112.472 59.0195C112.543 58.8019 112.562 58.5704 112.526 58.3442C112.49 58.118 112.4 57.9037 112.264 57.7191C112.128 57.5345 111.95 57.3849 111.745 57.2828C111.54 57.1806 111.313 57.1289 111.083 57.1318H82.1482C81.5096 57.1288 80.8861 57.3255 80.3652 57.6941C79.8442 58.0628 79.4519 58.585 79.2434 59.1874L73.3529 76.5485C73.2802 76.767 73.2612 76.9998 73.2974 77.2272C73.3335 77.4546 73.4239 77.6701 73.5607 77.8554C73.6976 78.0408 73.877 78.1907 74.084 78.2924C74.2909 78.3942 74.5192 78.445 74.7499 78.4404Z" fill="#366F90"/>
<path d="M76.6302 78.4404H106.72C107.025 78.442 107.323 78.3481 107.572 78.172C107.821 77.9958 108.009 77.7463 108.108 77.4583L114.361 59.0152C114.432 58.7976 114.451 58.5661 114.415 58.3399C114.378 58.1138 114.289 57.8995 114.153 57.7148C114.017 57.5302 113.839 57.3806 113.634 57.2785C113.429 57.1764 113.202 57.1246 112.972 57.1276H84.0371C83.3996 57.1259 82.7775 57.3231 82.2578 57.6917C81.7381 58.0603 81.3468 58.5817 81.1386 59.1832L75.2417 76.5485C75.1694 76.7663 75.1502 76.9983 75.186 77.2251C75.2217 77.4518 75.3113 77.6667 75.4472 77.8519C75.583 78.0371 75.7613 78.1871 75.9671 78.2895C76.173 78.3918 76.4003 78.4436 76.6302 78.4404Z" fill="#366F90"/>
<path d="M97.7135 67.1739C97.7135 66.4745 96.8957 66.1875 96.1823 66.1875C95.4689 66.1875 94.3018 66.9549 94.3103 67.937C94.3103 68.9999 95.1622 69.1338 95.8692 69.1338C96.5763 69.1338 97.7135 68.0688 97.7135 67.1739Z" fill="#DAEBE8"/>
<path d="M65.5497 75.83H106.735V78.4404H64.6979C64.4646 78.4404 64.2409 78.3479 64.076 78.1832C63.911 78.0186 63.8184 77.7953 63.8184 77.5624C63.8178 77.3351 63.8622 77.1099 63.9489 76.8998C64.0357 76.6896 64.1631 76.4986 64.324 76.3376C64.4848 76.1767 64.6758 76.049 64.8862 75.9619C65.0965 75.8748 65.322 75.83 65.5497 75.83Z" fill="#366F90"/>
<path d="M78.7961 66.4554L78.5703 66.3959C78.6321 66.1706 80.061 60.8498 81.0364 59.128C82.0118 57.4061 83.2321 57.0298 83.2832 57.0171L83.3449 57.2297C83.3321 57.2297 82.1758 57.5719 81.2409 59.2321C80.2868 60.9349 78.7961 66.4002 78.7961 66.4554Z" fill="#331832"/>
<path d="M74.3237 75.9491V75.7152C75.2948 75.7152 75.5376 75.322 75.5397 75.3177L77.8823 68.4218L78.0953 68.494L75.7527 75.4112C75.7314 75.4516 75.4482 75.9491 74.3237 75.9491Z" fill="#331832"/>
<g opacity="0.5">
<path d="M111.247 75.9979L125.676 74.4609L141.352 78.7295L122.607 81.7331L111.247 75.9979Z" fill="white"/>
</g>
<path d="M113.99 78.2088L127.786 76.7505L137.608 82.7706L123.22 85.8572L113.99 78.2088Z" fill="white"/>
<path d="M128.721 82.9619C128.703 82.9625 128.685 82.9563 128.671 82.9445C128.657 82.9327 128.648 82.9161 128.646 82.8981C128.643 82.8787 128.648 82.8588 128.659 82.8426C128.67 82.8264 128.687 82.815 128.706 82.8109C129.215 82.7072 129.699 82.5074 130.133 82.2221C130.793 81.7587 132.644 81.8458 132.716 81.8437C132.726 81.844 132.736 81.8462 132.745 81.8504C132.754 81.8545 132.762 81.8604 132.769 81.8677C132.776 81.8751 132.781 81.8837 132.784 81.8931C132.788 81.9025 132.789 81.9124 132.788 81.9224C132.788 81.9417 132.78 81.9601 132.766 81.9736C132.752 81.9871 132.733 81.9946 132.714 81.9946C132.69 81.9946 130.838 81.9096 130.224 82.3433C129.773 82.6448 129.266 82.8549 128.734 82.9619H128.721Z" fill="#68A1BF"/>
<path d="M126.074 83.623C126.055 83.6227 126.038 83.6159 126.024 83.6038C126.011 83.5917 126.002 83.5752 125.999 83.5571C125.997 83.5376 126.003 83.518 126.015 83.5022C126.026 83.4865 126.044 83.4757 126.063 83.4721C126.617 83.3874 127.161 83.2449 127.686 83.047C127.695 83.0423 127.705 83.0396 127.716 83.039C127.726 83.0385 127.737 83.0402 127.746 83.0439C127.756 83.0477 127.765 83.0534 127.772 83.0607C127.78 83.0681 127.785 83.0769 127.789 83.0866C127.793 83.0963 127.794 83.1067 127.794 83.1171C127.793 83.1275 127.791 83.1377 127.786 83.147C127.781 83.1562 127.775 83.1644 127.767 83.171C127.758 83.1776 127.749 83.1824 127.739 83.1851C127.203 83.3849 126.648 83.5274 126.082 83.6103L126.074 83.623Z" fill="#68A1BF"/>
<path d="M123.642 84.4201C123.628 84.4201 123.615 84.4165 123.604 84.4098C123.592 84.4031 123.582 84.3935 123.576 84.3819C123.571 84.3731 123.568 84.3635 123.567 84.3536C123.566 84.3436 123.567 84.3336 123.57 84.3241C123.573 84.3146 123.578 84.3058 123.584 84.2982C123.591 84.2906 123.599 84.2843 123.608 84.2798C124.069 84.0494 124.562 83.8875 125.071 83.7994C125.09 83.798 125.11 83.8036 125.125 83.8154C125.141 83.8271 125.152 83.8441 125.156 83.8632C125.158 83.873 125.158 83.883 125.155 83.8928C125.153 83.9025 125.149 83.9117 125.143 83.9198C125.138 83.9279 125.13 83.9348 125.122 83.9401C125.113 83.9453 125.104 83.9488 125.094 83.9504C124.602 84.0349 124.125 84.1911 123.678 84.4138C123.667 84.4186 123.654 84.4208 123.642 84.4201Z" fill="#68A1BF"/>
<path d="M128.917 81.9883C128.902 81.9887 128.888 81.9849 128.876 81.9774C128.864 81.9698 128.854 81.9588 128.849 81.9458C128.844 81.9367 128.842 81.9269 128.841 81.9169C128.841 81.9068 128.842 81.8968 128.845 81.8873C128.849 81.8778 128.854 81.8691 128.861 81.8616C128.867 81.8542 128.876 81.8481 128.885 81.8438C129.564 81.5367 130.289 81.3455 131.031 81.2783C131.051 81.2783 131.071 81.2863 131.085 81.3004C131.099 81.3146 131.107 81.3338 131.107 81.3538C131.107 81.3738 131.099 81.393 131.085 81.4071C131.071 81.4213 131.051 81.4292 131.031 81.4292C130.308 81.4957 129.6 81.6825 128.938 81.9819L128.917 81.9883Z" fill="#68A1BF"/>
<path d="M124.928 82.9619C124.913 82.9621 124.899 82.9579 124.886 82.95C124.874 82.9421 124.864 82.9307 124.858 82.9173C124.854 82.9081 124.851 82.8982 124.851 82.8881C124.851 82.8781 124.853 82.868 124.856 82.8587C124.86 82.8494 124.866 82.8409 124.873 82.8338C124.88 82.8267 124.889 82.8211 124.898 82.8174C125.75 82.456 127.207 82.3306 127.268 82.3242C127.289 82.3242 127.308 82.3322 127.322 82.3463C127.336 82.3605 127.344 82.3797 127.344 82.3997C127.344 82.4197 127.336 82.4389 127.322 82.453C127.308 82.4672 127.289 82.4752 127.268 82.4752C127.254 82.4752 125.778 82.6048 124.943 82.9556L124.928 82.9619Z" fill="#68A1BF"/>
<path d="M126.57 81.629C126.552 81.6294 126.535 81.6236 126.522 81.6127C126.508 81.6019 126.499 81.5866 126.495 81.5695C126.493 81.5599 126.493 81.5499 126.495 81.5401C126.497 81.5304 126.501 81.5212 126.506 81.513C126.512 81.5049 126.519 81.4979 126.527 81.4926C126.536 81.4874 126.545 81.4839 126.555 81.4824C127.302 81.3233 128.036 81.1051 128.749 80.8297C129.334 80.5987 129.963 80.5 130.591 80.5406C130.611 80.5406 130.63 80.5486 130.644 80.5627C130.658 80.5769 130.666 80.5961 130.666 80.6161C130.666 80.6361 130.658 80.6553 130.644 80.6695C130.63 80.6836 130.611 80.6916 130.591 80.6916C129.988 80.6574 129.385 80.7516 128.821 80.9679C128.095 81.2486 127.347 81.4697 126.585 81.629H126.57Z" fill="#68A1BF"/>
<path d="M122.453 82.4793C122.435 82.4791 122.418 82.4726 122.404 82.4609C122.391 82.4493 122.382 82.4332 122.379 82.4156C122.376 82.3956 122.381 82.3755 122.393 82.3593C122.405 82.3431 122.423 82.332 122.443 82.3284C122.994 82.2434 123.537 82.1119 124.065 81.9351C124.574 81.7675 125.109 81.6989 125.643 81.7332C125.663 81.7353 125.681 81.7449 125.694 81.76C125.706 81.775 125.713 81.7943 125.712 81.814C125.71 81.8328 125.702 81.8503 125.688 81.8633C125.674 81.8762 125.656 81.8837 125.637 81.8841C125.125 81.8502 124.611 81.9166 124.125 82.0797C123.586 82.2569 123.033 82.3905 122.472 82.4793H122.453Z" fill="#68A1BF"/>
<path d="M120.75 82.8747C120.734 82.8744 120.718 82.8694 120.705 82.8603C120.693 82.8512 120.683 82.8385 120.677 82.8237C120.671 82.8045 120.673 82.7837 120.682 82.7658C120.691 82.7479 120.707 82.7344 120.726 82.728C120.992 82.6552 121.262 82.6019 121.535 82.5686C121.554 82.5685 121.572 82.5751 121.585 82.5873C121.599 82.5995 121.608 82.6163 121.61 82.6345C121.612 82.6545 121.607 82.6746 121.594 82.6905C121.582 82.7065 121.564 82.7169 121.544 82.7195C121.279 82.7505 121.017 82.8017 120.76 82.8726L120.75 82.8747Z" fill="#68A1BF"/>
<path d="M124.828 81.1507C124.812 81.1506 124.796 81.1454 124.783 81.1359C124.77 81.1264 124.761 81.113 124.756 81.0977C124.751 81.0825 124.751 81.066 124.756 81.0507C124.761 81.0354 124.77 81.0221 124.783 81.0126C125.371 80.6065 127.428 80.2239 127.516 80.2069C127.535 80.2059 127.553 80.2112 127.569 80.222C127.585 80.2327 127.597 80.2483 127.603 80.2664C127.606 80.2861 127.602 80.3062 127.591 80.3228C127.58 80.3394 127.563 80.3511 127.543 80.3557C127.522 80.3557 125.433 80.7468 124.873 81.138C124.859 81.1468 124.844 81.1512 124.828 81.1507Z" fill="#68A1BF"/>
<path d="M107.601 79.38C107.601 79.38 107.388 79.4331 107.388 79.5097C107.388 79.633 107.601 79.65 107.601 79.65V79.38Z" fill="#331832"/>
<path d="M117.37 78.7954C117.372 78.8367 117.391 78.8756 117.421 78.9034C117.452 78.9313 117.492 78.9459 117.534 78.9442L121.874 78.7826C121.91 78.8167 121.932 78.8629 121.936 78.9123L122.029 79.7222C122.036 79.7623 122.057 79.7985 122.089 79.8233C122.121 79.848 122.162 79.8594 122.202 79.855C122.243 79.8506 122.28 79.8308 122.306 79.7997C122.332 79.7686 122.345 79.7287 122.343 79.6882L122.249 78.874C122.208 78.6317 122.055 78.4744 121.868 78.4808L117.523 78.6423C117.483 78.6434 117.445 78.6599 117.416 78.6884C117.387 78.7168 117.371 78.7551 117.37 78.7954Z" fill="#EF8062"/>
<path d="M108.824 80.6045L122.619 80.8171C122.751 80.8171 122.862 80.6491 122.866 80.4366L122.879 79.9136C122.879 79.701 122.786 79.5289 122.654 79.5204L108.896 78.7466L108.824 80.6045Z" fill="#331832"/>
<path d="M122.879 79.8646L123.731 79.9773C123.803 79.9773 123.857 80.0836 123.852 80.1899V80.2876C123.852 80.4088 123.786 80.5002 123.71 80.5002L122.858 80.479L122.879 79.8646Z" fill="#EF8062"/>
<path d="M120.686 79.3991C120.76 79.8608 120.748 80.3322 120.65 80.7894H119.77C119.912 80.3233 119.925 79.8275 119.808 79.3545L120.686 79.3991Z" fill="#EF8062"/>
<path d="M108.817 80.6044L107.595 79.6499L107.601 79.38L108.892 78.7401L108.817 80.6044Z" fill="#EF8062"/>
</svg>
