<svg width="651" height="1812" viewBox="0 0 651 1812" fill="none" xmlns="http://www.w3.org/2000/svg">
<path d="M328.046 0L254.635 176.223L204.434 529.135L219.08 733.421L364.959 957.232L570.689 529.135L391.204 228.786L372.963 108.955L328.046 0Z" fill="#FEF6F6"/>
<path d="M328.048 0L347.301 99.0447L346.276 180.331L305.012 239.834L355.425 300.677L307.478 311.636L315.34 443.554L231.498 530.444L373.385 658.794L364.962 957.232L462.391 644.972L463.035 413.475L402.925 340.748L417.474 315.516L371.809 233.476L368.745 108.425L328.048 0Z" fill="#8A9BA3"/>
<path d="M328.049 0L363.641 105.298L356.359 153.546L365.025 237.637L406.16 315.677L377.343 334.178L304.411 529.135L462.392 644.972L364.962 957.232L570.692 529.135L391.207 228.786L372.967 108.955L328.049 0Z" fill="#BDD9EC"/>
<path d="M349.753 206.597L343.306 239.184L372.974 283.614L331.436 248.196L349.753 206.597Z" fill="#FEF6F6"/>
<path d="M431.154 1199.85L451.794 1286.73L400.196 1638.23L294.425 1812L220.573 1363.75L144.145 1215.64L188.647 1063.11L62.8816 772.833L253.139 556.118L583.83 624.331L629.797 808.869L542.08 883.902C542.08 883.902 562.723 1010.28 562.723 1026.08L431.154 1199.85Z" fill="#D7EFFD"/>
<path d="M265.734 1637.85L302.162 1738.93L352.467 1594.78L308.609 1322.28L317.77 1197.16L300.876 1126.78L395.033 1030.02L317.638 949.065L433.731 648.924L487.911 753.578L547.245 749.625L521.448 868.106L536.927 937.218L513.708 1075.45L463.403 1041.88L469.85 1116.92L405.355 1186.03L429.863 1278.84L373.11 1334.12L396.326 1586.88L294.429 1811.99L265.734 1637.85Z" fill="#BDD9EC"/>
<path d="M525.312 941.166L503.534 1061.66L460.817 1000.4L473.717 901.682L431.145 1014.23L459.531 1109.02L391.158 1174.18L422.116 1270.95L353.753 1328.2L389.868 1594.78L294.425 1812L400.193 1638.22L451.794 1286.73L431.154 1199.85L562.723 1026.08L542.08 883.902L629.8 808.87L583.83 624.326L610.447 798.991L539.505 838.491L543.373 761.474L513.704 864.16L525.312 941.166Z" fill="#7BA0B6"/>
<path d="M240.238 1385.47L309.894 1594.78L297 1655.99L240.238 1385.47Z" fill="#8A9BA3"/>
<path d="M295.486 1054.69L375.759 1037.32L292.617 1109.83L295.486 1054.69Z" fill="#8A9BA3"/>
<path d="M360.571 1065.44L316.797 1129.07L345.801 1203.07L326.466 1328.87L317.765 1197.16L300.871 1126.79L360.571 1065.44Z" fill="#BDD9EC"/>
<path d="M401.385 1017.56L382.706 995.885L417.246 936.948L410.449 859.802L426.3 936.948L401.385 1017.56Z" fill="#8A9BA3"/>
<path d="M469.146 183.4L416.6 290.304L426.07 349.266L364.368 529.135L378.917 708.162L443.412 919.45L522.094 712.11L650.996 529.135L605.075 505.242L525.328 374.151L469.146 183.4Z" fill="#FEF6F6"/>
<path d="M469.151 183.4L479.122 299.237L465.175 326.028L499.504 408.14L488.634 487.209L513.101 529.135L457.606 625.224L485.985 668.667L448.955 751.013L439.545 929.318L560.673 529.135L520.802 455.998L526.237 396.345L487.278 326.288L494.072 306.867L469.151 183.4Z" fill="#8A9BA3"/>
<path d="M469.151 183.4L525.332 374.151L605.08 505.242L651 528.828L522.098 712.11L439.545 929.318L499.787 654.399L484.693 615.35L555.692 528.828L508.113 468.479L517.631 395.649L478.214 321.431L490.897 306.171L469.151 183.4Z" fill="#BDD9EC"/>
<path d="M531.357 402.298L588.538 497.65L559.951 488.264L539.106 463.302L559.096 474.162L531.357 402.298Z" fill="#8A9BA3"/>
<path d="M226.805 169.065L158.678 348.165L96.6355 466.901L8.64746 529.135L21.2861 611.404L0 732.845L87.0674 913.524L207.032 780.235L244.762 633.618L374.899 529.135L266.524 341.33L256.313 216.284L226.805 169.065Z" fill="#D9EFFF"/>
<path d="M226.803 169.065L233.49 234.328L183.459 372.468L202.812 439.606L112.513 529.135L75.4612 645.466L120.931 589.183L132.535 670.641L74.4241 836.429L192.519 679.528L253.297 529.135L268.593 459.354L254.404 384.316L231.721 330.48L249.899 217.598L226.803 169.065Z" fill="#8A9BA3"/>
<path d="M226.803 169.065L238.975 233.487L210.697 349.869L230.183 370.682L240.211 473.18L206.642 529.135L132.535 587.703L201.23 569.934L144.149 651.392L166.397 670.641L74.4241 836.429L87.0658 913.524L207.03 780.235L244.76 633.618L374.898 529.135L266.522 341.33L256.311 216.284L226.803 169.065Z" fill="#BDD9EC"/>
<path d="M108.643 465.281L153.794 378.395L134.444 459.355L108.643 465.281Z" fill="#8A9BA3"/>
<path d="M15.7896 534.859L29.9918 617.324L32.2144 550.534L56.9494 518.44L15.7896 534.859Z" fill="#8A9BA3"/>
<path d="M252.145 529.134L305.196 450.751L344.285 323.129L417.459 469.315L412.402 479.266L442.682 529.134L411.157 586.227L394.707 718.035L340.533 614.363L306.596 599.31L252.145 529.134Z" fill="#FEF6F6"/>
<path d="M319.135 529.134L346.24 453.53L336.206 425.69L350.288 397.367L344.289 323.129L375.405 431.668L367.69 446.824L387.911 482.326L378.27 544.758L375.367 609.922L394.711 718.035L335.701 581.781L362.788 558.086L319.135 529.134Z" fill="#8A9BA3"/>
<path d="M356.79 529.134L350.343 494.9L367.691 446.824L344.29 323.129L417.464 469.315L412.407 479.266L442.688 529.134L411.162 586.227L394.712 718.035L375.368 609.922L358.924 584.746L378.271 544.758L356.79 529.134Z" fill="#BDD9EC"/>
<path d="M390.022 479.984L402.544 466.085L374.546 395.124L413.058 469.824L406.762 480.711L426.601 520.741L390.022 479.984Z" fill="#8A9BA3"/>
<path d="M129.681 866.176L182.196 876.014L177.036 925.378L204.125 970.794L191.231 1156.41C191.231 1156.41 226.055 960.92 227.341 953.026C228.63 945.12 202.836 903.651 202.836 903.651L210.579 852.319L188.268 796.244L129.681 866.176Z" fill="#8A9BA3"/>
<path d="M219.075 733.423L153.706 857.97L197.678 866.135L192.517 919.452L214.45 968.821L191.231 1156.41L254.431 935.257L218.318 905.625L240.241 844.414L241.382 767.646L219.075 733.423Z" fill="#BDD9EC"/>
<path d="M223.48 1146.53L191.232 1255.14L269.914 1326.24L352.467 1594.78L300.875 1298.58L246.695 1249.22L223.48 1146.53Z" fill="#8A9BA3"/>
<path d="M223.48 1146.53L240.242 1249.22L287.975 1322.28L352.467 1594.78L308.609 1322.28L314.069 1247.67L300.876 1298.58L248.341 1249.22L223.48 1146.53Z" fill="#BDD9EC"/>
<path d="M316.631 773.571L296.883 641.311L346.255 786.166L300.997 937.318L293.841 794.96L316.631 773.571Z" fill="#8A9BA3"/>
<path d="M296.885 641.311L338.846 682.878L346.257 786.166L300.999 937.318L330.624 776.09L296.885 641.311Z" fill="#BDD9EC"/>
</svg>
