<svg width="78" height="56" viewBox="0 0 78 56" fill="none" xmlns="http://www.w3.org/2000/svg">
<rect width="78" height="56" rx="12" fill="#0070B8"/>
<path d="M61 10.8741C60.8726 11.595 59.0016 12.3397 50.7215 12.2129C50.1881 12.9418 49.6308 13.8211 49.1132 14.8669C48.7709 15.5561 48.4922 16.2295 48.2693 16.8633C50.0368 18.1467 50.7772 19.945 50.9524 20.4124C51.9635 23.106 51.2868 26.2986 49.2645 28.8337C44.3124 36.2172 39.3602 43.6086 34.4081 51C34.1374 48.3302 33.8667 45.6525 33.6039 42.9827C35.9287 39.8614 38.2695 36.74 40.5943 33.6108C37.7838 35.8369 34.9654 38.071 32.147 40.305C32.354 38.8553 32.561 37.4134 32.768 35.9716C35.2679 33.6662 37.7599 31.3609 40.2599 29.0555C38.0545 30.1012 35.8571 31.147 33.6517 32.1927C34.631 30.4894 35.6023 28.7783 36.5736 27.0829C34.83 28.2079 32.8555 29.515 30.6342 30.9331C23.8589 35.2665 17.187 39.0771 17.0039 38.8236C16.6695 38.3482 37.9829 23.4229 37.6087 22.8762C37.4255 22.6069 31.9638 25.8787 19.9736 33.5474C20.2921 32.0501 20.6185 30.5687 20.937 29.0714C30.5706 25.1736 32.5291 24.0725 32.4415 23.811C32.338 23.5258 29.6948 24.1755 27.0515 24.8251C23.9465 25.5856 21.4226 26.362 19.6551 26.9482C21.2713 25.2212 23.2538 23.3436 25.6423 21.5215C29.3285 18.6854 32.975 16.7524 36.1039 15.4214C36.2552 13.3221 36.9558 10.4621 39.3443 8.17261C41.9239 5.68505 46.263 4.08476 49.9333 5.57414C51.239 6.10492 52.1626 6.90507 52.7676 7.53885C53.723 7.45963 55.4905 7.42795 57.4571 8.22017C58.5319 8.65589 61.1433 9.94719 60.9841 10.8741H61Z" fill="#17100E"/>
</svg>
