<svg width="79" height="56" viewBox="0 0 79 56" fill="none" xmlns="http://www.w3.org/2000/svg">
<rect x="0.5" width="78" height="56" rx="12" fill="#0070B8" fill-opacity="0.3"/>
<path d="M61.5 10.8741C61.3726 11.595 59.5016 12.3397 51.2215 12.2129C50.6881 12.9418 50.1308 13.8211 49.6132 14.8669C49.2709 15.5561 48.9922 16.2295 48.7693 16.8633C50.5368 18.1467 51.2772 19.945 51.4524 20.4124C52.4635 23.106 51.7868 26.2986 49.7645 28.8337C44.8124 36.2172 39.8602 43.6086 34.9081 51C34.6374 48.3302 34.3667 45.6525 34.1039 42.9827C36.4287 39.8614 38.7695 36.74 41.0943 33.6108C38.2838 35.8369 35.4654 38.071 32.647 40.305C32.854 38.8553 33.061 37.4134 33.268 35.9716C35.7679 33.6662 38.2599 31.3609 40.7599 29.0555C38.5545 30.1012 36.3571 31.147 34.1517 32.1927C35.131 30.4894 36.1023 28.7783 37.0736 27.0829C35.33 28.2079 33.3555 29.515 31.1342 30.9331C24.3589 35.2665 17.687 39.0771 17.5039 38.8236C17.1695 38.3482 38.4829 23.4229 38.1087 22.8762C37.9255 22.6069 32.4638 25.8787 20.4736 33.5474C20.7921 32.0501 21.1185 30.5687 21.437 29.0714C31.0706 25.1736 33.0291 24.0725 32.9415 23.811C32.838 23.5258 30.1948 24.1755 27.5515 24.8251C24.4465 25.5856 21.9226 26.362 20.1551 26.9482C21.7713 25.2212 23.7538 23.3436 26.1423 21.5215C29.8285 18.6854 33.475 16.7524 36.6039 15.4214C36.7552 13.3221 37.4558 10.4621 39.8443 8.17261C42.4239 5.68505 46.763 4.08476 50.4333 5.57414C51.739 6.10492 52.6626 6.90507 53.2676 7.53885C54.223 7.45963 55.9905 7.42795 57.9571 8.22017C59.0319 8.65589 61.6433 9.94719 61.4841 10.8741H61.5Z" fill="#17100E"/>
</svg>
