<svg width="636" height="530" viewBox="0 0 636 530" fill="none" xmlns="http://www.w3.org/2000/svg">
<mask id="mask0_310_8683" style="mask-type:luminance" maskUnits="userSpaceOnUse" x="0" y="0" width="636" height="530">
<path d="M635.996 0H0.789062V529.135H635.996V0Z" fill="white"/>
</mask>
<g mask="url(#mask0_310_8683)">
<path d="M313.048 0L239.638 176.223L189.437 529.135L204.083 733.421L349.962 957.232L555.692 529.135L376.207 228.786L357.966 108.955L313.048 0Z" fill="white"/>
<path d="M313.052 0L332.304 99.0447L331.28 180.331L290.016 239.834L340.428 300.677L292.481 311.636L300.344 443.554L216.501 530.444L358.389 658.794L349.965 957.232L447.395 644.972L448.038 413.475L387.928 340.748L402.477 315.516L356.812 233.476L353.748 108.425L313.052 0Z" fill="#FEF7F7"/>
<path d="M313.052 0L348.645 105.298L341.362 153.546L350.029 237.637L391.164 315.677L362.346 334.178L289.415 529.135L447.396 644.972L349.966 957.232L555.696 529.135L376.211 228.786L357.97 108.955L313.052 0Z" fill="#D1D3D4"/>
<path d="M334.755 206.597L328.308 239.184L357.976 283.614L316.438 248.196L334.755 206.597Z" fill="white"/>
<path d="M454.15 183.4L401.603 290.304L411.073 349.266L349.371 529.135L363.92 708.162L428.416 919.45L507.097 712.11L635.999 529.135L590.079 505.242L510.332 374.151L454.15 183.4Z" fill="white"/>
<path d="M454.154 183.4L464.126 299.237L450.179 326.028L484.507 408.14L473.637 487.209L498.104 529.135L442.61 625.224L470.989 668.667L433.959 751.013L424.549 929.318L545.676 529.135L505.806 455.998L511.241 396.345L472.282 326.288L479.075 306.867L454.154 183.4Z" fill="#FEF7F7"/>
<path d="M454.154 183.4L510.336 374.151L590.083 505.242L636.004 528.828L507.102 712.11L424.549 929.318L484.791 654.399L469.696 615.35L540.695 528.828L493.117 468.479L502.634 395.649L463.218 321.431L475.901 306.171L454.154 183.4Z" fill="#D1D3D4"/>
<path d="M516.359 402.298L573.54 497.65L544.953 488.264L524.108 463.302L544.099 474.162L516.359 402.298Z" fill="#FEF7F7"/>
<path d="M211.808 169.065L143.682 348.165L81.6391 466.901L-6.34887 529.135L6.28975 611.404L-14.9963 732.845L72.0711 913.524L192.035 780.235L229.765 633.618L359.903 529.135L251.527 341.33L241.316 216.284L211.808 169.065Z" fill="white"/>
<path d="M211.807 169.065L218.493 234.328L168.462 372.468L187.816 439.606L97.5167 529.135L60.4647 645.466L105.934 589.183L117.539 670.641L59.4275 836.429L177.522 679.528L238.301 529.135L253.597 459.354L239.407 384.316L216.725 330.48L234.902 217.598L211.807 169.065Z" fill="#FEF7F7"/>
<path d="M211.807 169.065L223.979 233.487L195.7 349.869L215.186 370.682L225.214 473.18L191.646 529.135L117.539 587.703L186.233 569.934L129.153 651.392L151.4 670.641L59.4275 836.429L72.0692 913.524L192.034 780.235L229.764 633.618L359.901 529.135L251.526 341.33L241.314 216.284L211.807 169.065Z" fill="#D1D3D4"/>
<path d="M93.6458 465.281L138.797 378.395L119.446 459.355L93.6458 465.281Z" fill="#FEF7F7"/>
<path d="M0.791992 534.859L14.9942 617.324L17.2168 550.534L41.9518 518.44L0.791992 534.859Z" fill="#FEF7F7"/>
<path d="M237.148 529.134L290.2 450.751L329.288 323.129L402.462 469.315L397.406 479.266L427.686 529.134L396.16 586.227L379.71 718.035L325.537 614.363L291.599 599.31L237.148 529.134Z" fill="white"/>
<path d="M304.138 529.134L331.244 453.53L321.209 425.69L335.292 397.367L329.292 323.129L360.408 431.668L352.694 446.824L372.914 482.326L363.274 544.758L360.37 609.922L379.714 718.035L320.705 581.781L347.791 558.086L304.138 529.134Z" fill="#FEF7F7"/>
<path d="M341.793 529.134L335.346 494.9L352.695 446.824L329.293 323.129L402.467 469.315L397.411 479.266L427.691 529.134L396.165 586.227L379.715 718.035L360.371 609.922L343.927 584.746L363.275 544.758L341.793 529.134Z" fill="#D1D3D4"/>
<path d="M375.024 479.984L387.546 466.085L359.548 395.124L398.06 469.824L391.764 480.711L411.603 520.741L375.024 479.984Z" fill="#FEF7F7"/>
</g>
</svg>
